{
	"asset":{
		"generator":"Khronos glTF Blender I/O v3.6.27",
		"version":"2.0"
	},
	"scene":0,
	"scenes":[
		{
			"name":"Scene",
			"nodes":[
				0
			]
		}
	],
	"nodes":[
		{
			"mesh":0,
			"name":"Cube",
			"rotation":[
				0.7071068286895752,
				0,
				0,
				0.7071068286895752
			],
			"scale":[
				0.009999999776482582,
				0.009999999776482582,
				0.009999999776482582
			]
		}
	],
	"materials":[
		{
			"doubleSided":true,
			"name":"Material.001",
			"pbrMetallicRoughness":{
				"baseColorFactor":[
					0.5143105983734131,
					0.4717053771018982,
					0.4116778075695038,
					1
				],
				"metallicFactor":0,
				"roughnessFactor":0.5
			}
		},
		{
			"doubleSided":true,
			"name":"\u6750\u8d28",
			"pbrMetallicRoughness":{
				"baseColorFactor":[
					0.8000000715255737,
					0.03477977216243744,
					0,
					1
				],
				"metallicFactor":0,
				"roughnessFactor":0.5
			}
		},
		{
			"doubleSided":true,
			"name":"\u6750\u8d28.001",
			"pbrMetallicRoughness":{
				"baseColorFactor":[
					0,
					0.004892053082585335,
					0.8000000715255737,
					1
				],
				"metallicFactor":0,
				"roughnessFactor":0.5
			}
		},
		{
			"doubleSided":true,
			"name":"\u6750\u8d28.002",
			"pbrMetallicRoughness":{
				"baseColorFactor":[
					0.002671542577445507,
					0.8000000715255737,
					0,
					1
				],
				"metallicFactor":0,
				"roughnessFactor":0.5
			}
		},
		{
			"doubleSided":true,
			"name":"\u6750\u8d28.003",
			"pbrMetallicRoughness":{
				"baseColorFactor":[
					0.8000000715255737,
					0.5642132759094238,
					0,
					1
				],
				"metallicFactor":0,
				"roughnessFactor":0.5
			}
		},
		{
			"doubleSided":true,
			"name":"\u6750\u8d28.004",
			"pbrMetallicRoughness":{
				"baseColorFactor":[
					0,
					0,
					0,
					1
				],
				"metallicFactor":0,
				"roughnessFactor":0.5
			}
		}
	],
	"meshes":[
		{
			"name":"Cube.001",
			"primitives":[
				{
					"attributes":{
						"POSITION":0,
						"NORMAL":1,
						"TEXCOORD_0":2
					},
					"indices":3,
					"material":0
				},
				{
					"attributes":{
						"POSITION":4,
						"NORMAL":5,
						"TEXCOORD_0":6
					},
					"indices":7,
					"material":1
				},
				{
					"attributes":{
						"POSITION":8,
						"NORMAL":9,
						"TEXCOORD_0":10
					},
					"indices":11,
					"material":2
				},
				{
					"attributes":{
						"POSITION":12,
						"NORMAL":13,
						"TEXCOORD_0":14
					},
					"indices":15,
					"material":3
				},
				{
					"attributes":{
						"POSITION":16,
						"NORMAL":17,
						"TEXCOORD_0":18
					},
					"indices":19,
					"material":4
				},
				{
					"attributes":{
						"POSITION":20,
						"NORMAL":21,
						"TEXCOORD_0":22
					},
					"indices":23,
					"material":5
				}
			]
		}
	],
	"accessors":[
		{
			"bufferView":0,
			"componentType":5126,
			"count":996,
			"max":[
				100,
				100,
				100
			],
			"min":[
				-100,
				-100,
				-100
			],
			"type":"VEC3"
		},
		{
			"bufferView":1,
			"componentType":5126,
			"count":996,
			"type":"VEC3"
		},
		{
			"bufferView":2,
			"componentType":5126,
			"count":996,
			"type":"VEC2"
		},
		{
			"bufferView":3,
			"componentType":5123,
			"count":1494,
			"type":"SCALAR"
		},
		{
			"bufferView":4,
			"componentType":5126,
			"count":36,
			"max":[
				100,
				100,
				100
			],
			"min":[
				-100,
				100,
				-100
			],
			"type":"VEC3"
		},
		{
			"bufferView":5,
			"componentType":5126,
			"count":36,
			"type":"VEC3"
		},
		{
			"bufferView":6,
			"componentType":5126,
			"count":36,
			"type":"VEC2"
		},
		{
			"bufferView":7,
			"componentType":5123,
			"count":54,
			"type":"SCALAR"
		},
		{
			"bufferView":8,
			"componentType":5126,
			"count":36,
			"max":[
				100,
				100,
				-100
			],
			"min":[
				-100,
				-100,
				-100
			],
			"type":"VEC3"
		},
		{
			"bufferView":9,
			"componentType":5126,
			"count":36,
			"type":"VEC3"
		},
		{
			"bufferView":10,
			"componentType":5126,
			"count":36,
			"type":"VEC2"
		},
		{
			"bufferView":11,
			"componentType":5123,
			"count":54,
			"type":"SCALAR"
		},
		{
			"bufferView":12,
			"componentType":5126,
			"count":36,
			"max":[
				100,
				100,
				100
			],
			"min":[
				100,
				-100,
				-100
			],
			"type":"VEC3"
		},
		{
			"bufferView":13,
			"componentType":5126,
			"count":36,
			"type":"VEC3"
		},
		{
			"bufferView":14,
			"componentType":5126,
			"count":36,
			"type":"VEC2"
		},
		{
			"bufferView":15,
			"componentType":5123,
			"count":54,
			"type":"SCALAR"
		},
		{
			"bufferView":16,
			"componentType":5126,
			"count":36,
			"max":[
				100,
				100,
				100
			],
			"min":[
				-100,
				-100,
				100
			],
			"type":"VEC3"
		},
		{
			"bufferView":17,
			"componentType":5126,
			"count":36,
			"type":"VEC3"
		},
		{
			"bufferView":18,
			"componentType":5126,
			"count":36,
			"type":"VEC2"
		},
		{
			"bufferView":19,
			"componentType":5123,
			"count":54,
			"type":"SCALAR"
		},
		{
			"bufferView":20,
			"componentType":5126,
			"count":36,
			"max":[
				100,
				-100,
				100
			],
			"min":[
				-100,
				-100,
				-100
			],
			"type":"VEC3"
		},
		{
			"bufferView":21,
			"componentType":5126,
			"count":36,
			"type":"VEC3"
		},
		{
			"bufferView":22,
			"componentType":5126,
			"count":36,
			"type":"VEC2"
		},
		{
			"bufferView":23,
			"componentType":5123,
			"count":54,
			"type":"SCALAR"
		}
	],
	"bufferViews":[
		{
			"buffer":0,
			"byteLength":11952,
			"byteOffset":0,
			"target":34962
		},
		{
			"buffer":0,
			"byteLength":11952,
			"byteOffset":11952,
			"target":34962
		},
		{
			"buffer":0,
			"byteLength":7968,
			"byteOffset":23904,
			"target":34962
		},
		{
			"buffer":0,
			"byteLength":2988,
			"byteOffset":31872,
			"target":34963
		},
		{
			"buffer":0,
			"byteLength":432,
			"byteOffset":34860,
			"target":34962
		},
		{
			"buffer":0,
			"byteLength":432,
			"byteOffset":35292,
			"target":34962
		},
		{
			"buffer":0,
			"byteLength":288,
			"byteOffset":35724,
			"target":34962
		},
		{
			"buffer":0,
			"byteLength":108,
			"byteOffset":36012,
			"target":34963
		},
		{
			"buffer":0,
			"byteLength":432,
			"byteOffset":36120,
			"target":34962
		},
		{
			"buffer":0,
			"byteLength":432,
			"byteOffset":36552,
			"target":34962
		},
		{
			"buffer":0,
			"byteLength":288,
			"byteOffset":36984,
			"target":34962
		},
		{
			"buffer":0,
			"byteLength":108,
			"byteOffset":37272,
			"target":34963
		},
		{
			"buffer":0,
			"byteLength":432,
			"byteOffset":37380,
			"target":34962
		},
		{
			"buffer":0,
			"byteLength":432,
			"byteOffset":37812,
			"target":34962
		},
		{
			"buffer":0,
			"byteLength":288,
			"byteOffset":38244,
			"target":34962
		},
		{
			"buffer":0,
			"byteLength":108,
			"byteOffset":38532,
			"target":34963
		},
		{
			"buffer":0,
			"byteLength":432,
			"byteOffset":38640,
			"target":34962
		},
		{
			"buffer":0,
			"byteLength":432,
			"byteOffset":39072,
			"target":34962
		},
		{
			"buffer":0,
			"byteLength":288,
			"byteOffset":39504,
			"target":34962
		},
		{
			"buffer":0,
			"byteLength":108,
			"byteOffset":39792,
			"target":34963
		},
		{
			"buffer":0,
			"byteLength":432,
			"byteOffset":39900,
			"target":34962
		},
		{
			"buffer":0,
			"byteLength":432,
			"byteOffset":40332,
			"target":34962
		},
		{
			"buffer":0,
			"byteLength":288,
			"byteOffset":40764,
			"target":34962
		},
		{
			"buffer":0,
			"byteLength":108,
			"byteOffset":41052,
			"target":34963
		}
	],
	"buffers":[
		{
			"byteLength":41160,
			"uri":"data:application/octet-stream;base64,"
		}
	]
}
